C:\OpenCap\opencap-processing\Data\7866dab3-7210-45d6-b98e-60491a15613b\OpenSimData\Dynamics\TRJave75\GRF_TRJave75_0.mot
version=1
nRows=4
nColumns=109
inDegrees=yes
endheader 
time	ground_force_SmoothSphereHalfSpaceForce_s1_r_vx	ground_force_SmoothSphereHalfSpaceForce_s1_r_vy	ground_force_SmoothSphereHalfSpaceForce_s1_r_vz	ground_force_SmoothSphereHalfSpaceForce_s1_r_px	ground_force_SmoothSphereHalfSpaceForce_s1_r_py	ground_force_SmoothSphereHalfSpaceForce_s1_r_pz	ground_torque_SmoothSphereHalfSpaceForce_s1_r_x	ground_torque_SmoothSphereHalfSpaceForce_s1_r_y	ground_torque_SmoothSphereHalfSpaceForce_s1_r_z	ground_force_SmoothSphereHalfSpaceForce_s2_r_vx	ground_force_SmoothSphereHalfSpaceForce_s2_r_vy	ground_force_SmoothSphereHalfSpaceForce_s2_r_vz	ground_force_SmoothSphereHalfSpaceForce_s2_r_px	ground_force_SmoothSphereHalfSpaceForce_s2_r_py	ground_force_SmoothSphereHalfSpaceForce_s2_r_pz	ground_torque_SmoothSphereHalfSpaceForce_s2_r_x	ground_torque_SmoothSphereHalfSpaceForce_s2_r_y	ground_torque_SmoothSphereHalfSpaceForce_s2_r_z	ground_force_SmoothSphereHalfSpaceForce_s3_r_vx	ground_force_SmoothSphereHalfSpaceForce_s3_r_vy	ground_force_SmoothSphereHalfSpaceForce_s3_r_vz	ground_force_SmoothSphereHalfSpaceForce_s3_r_px	ground_force_SmoothSphereHalfSpaceForce_s3_r_py	ground_force_SmoothSphereHalfSpaceForce_s3_r_pz	ground_torque_SmoothSphereHalfSpaceForce_s3_r_x	ground_torque_SmoothSphereHalfSpaceForce_s3_r_y	ground_torque_SmoothSphereHalfSpaceForce_s3_r_z	ground_force_SmoothSphereHalfSpaceForce_s4_r_vx	ground_force_SmoothSphereHalfSpaceForce_s4_r_vy	ground_force_SmoothSphereHalfSpaceForce_s4_r_vz	ground_force_SmoothSphereHalfSpaceForce_s4_r_px	ground_force_SmoothSphereHalfSpaceForce_s4_r_py	ground_force_SmoothSphereHalfSpaceForce_s4_r_pz	ground_torque_SmoothSphereHalfSpaceForce_s4_r_x	ground_torque_SmoothSphereHalfSpaceForce_s4_r_y	ground_torque_SmoothSphereHalfSpaceForce_s4_r_z	ground_force_SmoothSphereHalfSpaceForce_s5_r_vx	ground_force_SmoothSphereHalfSpaceForce_s5_r_vy	ground_force_SmoothSphereHalfSpaceForce_s5_r_vz	ground_force_SmoothSphereHalfSpaceForce_s5_r_px	ground_force_SmoothSphereHalfSpaceForce_s5_r_py	ground_force_SmoothSphereHalfSpaceForce_s5_r_pz	ground_torque_SmoothSphereHalfSpaceForce_s5_r_x	ground_torque_SmoothSphereHalfSpaceForce_s5_r_y	ground_torque_SmoothSphereHalfSpaceForce_s5_r_z	ground_force_SmoothSphereHalfSpaceForce_s6_r_vx	ground_force_SmoothSphereHalfSpaceForce_s6_r_vy	ground_force_SmoothSphereHalfSpaceForce_s6_r_vz	ground_force_SmoothSphereHalfSpaceForce_s6_r_px	ground_force_SmoothSphereHalfSpaceForce_s6_r_py	ground_force_SmoothSphereHalfSpaceForce_s6_r_pz	ground_torque_SmoothSphereHalfSpaceForce_s6_r_x	ground_torque_SmoothSphereHalfSpaceForce_s6_r_y	ground_torque_SmoothSphereHalfSpaceForce_s6_r_z	ground_force_SmoothSphereHalfSpaceForce_s1_l_vx	ground_force_SmoothSphereHalfSpaceForce_s1_l_vy	ground_force_SmoothSphereHalfSpaceForce_s1_l_vz	ground_force_SmoothSphereHalfSpaceForce_s1_l_px	ground_force_SmoothSphereHalfSpaceForce_s1_l_py	ground_force_SmoothSphereHalfSpaceForce_s1_l_pz	ground_torque_SmoothSphereHalfSpaceForce_s1_l_x	ground_torque_SmoothSphereHalfSpaceForce_s1_l_y	ground_torque_SmoothSphereHalfSpaceForce_s1_l_z	ground_force_SmoothSphereHalfSpaceForce_s2_l_vx	ground_force_SmoothSphereHalfSpaceForce_s2_l_vy	ground_force_SmoothSphereHalfSpaceForce_s2_l_vz	ground_force_SmoothSphereHalfSpaceForce_s2_l_px	ground_force_SmoothSphereHalfSpaceForce_s2_l_py	ground_force_SmoothSphereHalfSpaceForce_s2_l_pz	ground_torque_SmoothSphereHalfSpaceForce_s2_l_x	ground_torque_SmoothSphereHalfSpaceForce_s2_l_y	ground_torque_SmoothSphereHalfSpaceForce_s2_l_z	ground_force_SmoothSphereHalfSpaceForce_s3_l_vx	ground_force_SmoothSphereHalfSpaceForce_s3_l_vy	ground_force_SmoothSphereHalfSpaceForce_s3_l_vz	ground_force_SmoothSphereHalfSpaceForce_s3_l_px	ground_force_SmoothSphereHalfSpaceForce_s3_l_py	ground_force_SmoothSphereHalfSpaceForce_s3_l_pz	ground_torque_SmoothSphereHalfSpaceForce_s3_l_x	ground_torque_SmoothSphereHalfSpaceForce_s3_l_y	ground_torque_SmoothSphereHalfSpaceForce_s3_l_z	ground_force_SmoothSphereHalfSpaceForce_s4_l_vx	ground_force_SmoothSphereHalfSpaceForce_s4_l_vy	ground_force_SmoothSphereHalfSpaceForce_s4_l_vz	ground_force_SmoothSphereHalfSpaceForce_s4_l_px	ground_force_SmoothSphereHalfSpaceForce_s4_l_py	ground_force_SmoothSphereHalfSpaceForce_s4_l_pz	ground_torque_SmoothSphereHalfSpaceForce_s4_l_x	ground_torque_SmoothSphereHalfSpaceForce_s4_l_y	ground_torque_SmoothSphereHalfSpaceForce_s4_l_z	ground_force_SmoothSphereHalfSpaceForce_s5_l_vx	ground_force_SmoothSphereHalfSpaceForce_s5_l_vy	ground_force_SmoothSphereHalfSpaceForce_s5_l_vz	ground_force_SmoothSphereHalfSpaceForce_s5_l_px	ground_force_SmoothSphereHalfSpaceForce_s5_l_py	ground_force_SmoothSphereHalfSpaceForce_s5_l_pz	ground_torque_SmoothSphereHalfSpaceForce_s5_l_x	ground_torque_SmoothSphereHalfSpaceForce_s5_l_y	ground_torque_SmoothSphereHalfSpaceForce_s5_l_z	ground_force_SmoothSphereHalfSpaceForce_s6_l_vx	ground_force_SmoothSphereHalfSpaceForce_s6_l_vy	ground_force_SmoothSphereHalfSpaceForce_s6_l_vz	ground_force_SmoothSphereHalfSpaceForce_s6_l_px	ground_force_SmoothSphereHalfSpaceForce_s6_l_py	ground_force_SmoothSphereHalfSpaceForce_s6_l_pz	ground_torque_SmoothSphereHalfSpaceForce_s6_l_x	ground_torque_SmoothSphereHalfSpaceForce_s6_l_y	ground_torque_SmoothSphereHalfSpaceForce_s6_l_z	
          5.20000000	         -0.00000000	          0.00000000	         -0.00000000	         -2.97291914	          0.04946210	          0.37225696	          0.00000000	          0.00000000	          0.00000000	         -0.00000000	          0.00000000	         -0.00000000	         -2.87810661	          0.04158086	          0.48913445	          0.00000000	          0.00000000	          0.00000000	         -0.00000000	          0.00000000	         -0.00000000	         -2.94338673	          0.06511468	          0.51069324	          0.00000000	          0.00000000	          0.00000000	         -0.00000000	          0.00000000	         -0.00000000	         -2.96054335	          0.05801179	          0.44148489	          0.00000000	          0.00000000	          0.00000000	         -0.00000000	          0.00000000	         -0.00000000	         -2.84732255	          0.04370304	          0.55984421	          0.00000000	          0.00000000	          0.00000000	         -0.00000000	          0.00000000	         -0.00000000	         -2.91258795	          0.06731540	          0.58185392	          0.00000000	          0.00000000	          0.00000000	         -0.00000001	          0.00000001	          0.00000001	         -2.31975965	          0.02121048	         -0.13076705	          0.00000000	          0.00000000	          0.00000000	       -136.70149615	        417.40896482	        306.25402154	         -2.20070259	         -0.00695551	         -0.05626644	          0.00000000	          0.00000000	          0.00000000	         -0.00000000	          0.00000000	          0.00000000	         -2.17762593	          0.02537619	         -0.10346550	          0.00000000	          0.00000000	          0.00000000	         -0.00000000	          0.00000000	          0.00000000	         -2.24865049	          0.02437838	         -0.11887590	          0.00000000	          0.00000000	          0.00000000	       -638.22825486	        962.01365438	        -58.84932087	         -2.12845502	         -0.01209403	         -0.02942053	          0.00000000	          0.00000000	          0.00000000	         -0.00000002	          0.00000002	         -0.00000001	         -2.10544725	          0.02104548	         -0.07471853	          0.00000000	          0.00000000	          0.00000000	
          5.21000000	         -0.00000000	          0.00000000	         -0.00000000	         -2.97487535	          0.04883093	          0.37353241	          0.00000000	          0.00000000	          0.00000000	         -0.00000000	          0.00000000	         -0.00000000	         -2.88249712	          0.03800706	          0.49141310	          0.00000000	          0.00000000	          0.00000000	         -0.00000000	          0.00000000	         -0.00000000	         -2.94404044	          0.06416694	          0.51182636	          0.00000000	          0.00000000	          0.00000000	         -0.00000000	          0.00000000	         -0.00000000	         -2.96172723	          0.05731390	          0.44265070	          0.00000000	          0.00000000	          0.00000000	         -0.00000000	          0.00000000	         -0.00000000	         -2.85201386	          0.03937460	          0.56232973	          0.00000000	          0.00000000	          0.00000000	         -0.00000000	          0.00000000	         -0.00000000	         -2.91352826	          0.06561881	          0.58318921	          0.00000000	          0.00000000	          0.00000000	          0.00000001	          0.00000006	         -0.00000005	         -2.31759209	          0.01971495	         -0.13159355	          0.00000000	          0.00000000	          0.00000000	        -91.02453433	        602.29689269	        218.09354566	         -2.19937525	         -0.00980820	         -0.05786071	          0.00000000	          0.00000000	          0.00000000	         -0.00000000	          0.00000001	          0.00000001	         -2.17493113	          0.02185506	         -0.10617093	          0.00000000	          0.00000000	          0.00000000	          0.00000000	          0.00000001	          0.00000000	         -2.24617527	          0.02185782	         -0.12067002	          0.00000000	          0.00000000	          0.00000000	       -770.24379433	       1050.33881027	         14.17385028	         -2.12717067	         -0.01489113	         -0.02949563	          0.00000000	          0.00000000	          0.00000000	         -0.00000029	          0.00000034	         -0.00000011	         -2.10341619	          0.01841352	         -0.07391524	          0.00000000	          0.00000000	          0.00000000	
          5.22000000	         -0.00000000	          0.00000000	          0.00000000	         -2.97775821	          0.04905727	          0.37346654	          0.00000000	          0.00000000	          0.00000000	         -0.00000000	          0.00000000	          0.00000000	         -2.88868047	          0.03430619	          0.49218046	          0.00000000	          0.00000000	          0.00000000	         -0.00000000	          0.00000000	          0.00000000	         -2.94553996	          0.06309866	          0.51199495	          0.00000000	          0.00000000	          0.00000000	         -0.00000000	          0.00000000	          0.00000000	         -2.96376533	          0.05698988	          0.44268032	          0.00000000	          0.00000000	          0.00000000	         -0.00000000	          0.00000000	          0.00000000	         -2.85868908	          0.03439002	          0.56336014	          0.00000000	          0.00000000	          0.00000000	         -0.00000000	          0.00000000	          0.00000000	         -2.91550549	          0.06326749	          0.58361939	          0.00000000	          0.00000000	          0.00000000	          0.00000002	          0.00000017	         -0.00000011	         -2.31665536	          0.01868261	         -0.13068718	          0.00000000	          0.00000000	          0.00000000	       -151.68363076	        665.93261696	        218.93962003	         -2.19839174	         -0.01198944	         -0.05893180	          0.00000000	          0.00000000	          0.00000000	         -0.00000002	          0.00000016	          0.00000011	         -2.17341170	          0.01912220	         -0.10838785	          0.00000000	          0.00000000	          0.00000000	          0.00000000	          0.00000005	          0.00000000	         -2.24493191	          0.01996528	         -0.12134810	          0.00000000	          0.00000000	          0.00000000	       -661.94353345	        996.20843381	        -17.75074993	         -2.12604730	         -0.01678951	         -0.02958392	          0.00000000	          0.00000000	          0.00000000	         -0.00000123	          0.00000146	         -0.00000054	         -2.10245661	          0.01685737	         -0.07304890	          0.00000000	          0.00000000	          0.00000000	
          5.23000000	         -0.00000000	         -0.00000000	         -0.00000000	         -2.98118293	          0.05028831	          0.37228399	          0.00000000	          0.00000000	          0.00000000	          0.00000000	          0.00000000	          0.00000000	         -2.89631743	          0.03064978	          0.49125196	          0.00000000	          0.00000000	          0.00000000	         -0.00000000	          0.00000000	          0.00000000	         -2.94747733	          0.06195817	          0.51133783	          0.00000000	          0.00000000	          0.00000000	         -0.00000000	          0.00000000	          0.00000000	         -2.96625906	          0.05713377	          0.44176702	          0.00000000	          0.00000000	          0.00000000	          0.00000000	          0.00000000	          0.00000000	         -2.86701293	          0.02889486	          0.56262983	          0.00000000	          0.00000000	          0.00000000	         -0.00000000	          0.00000000	          0.00000000	         -2.91812069	          0.06028161	          0.58316415	          0.00000000	          0.00000000	          0.00000000	         -0.00000007	          0.00000025	         -0.00000002	         -2.31541779	          0.01813945	         -0.13041227	          0.00000000	          0.00000000	          0.00000000	       -216.97522020	        632.79365276	        235.35251010	         -2.19731870	         -0.01343955	         -0.05997159	          0.00000000	          0.00000000	          0.00000000	         -0.00000039	          0.00000110	          0.00000065	         -2.17186046	          0.01722442	         -0.11029453	          0.00000000	          0.00000000	          0.00000000	         -0.00000005	          0.00000017	          0.00000004	         -2.24352278	          0.01873661	         -0.12218218	          0.00000000	          0.00000000	          0.00000000	       -483.94343028	        887.02250487	        -63.95976935	         -2.12502904	         -0.01795559	         -0.02958969	          0.00000000	          0.00000000	          0.00000000	         -0.00000250	          0.00000308	         -0.00000125	         -2.10161472	          0.01599984	         -0.07218147	          0.00000000	          0.00000000	          0.00000000	
